<svg version="1.1" viewBox="0.0 0.0 100.0 100.0" fill="none" stroke="none" stroke-linecap="square" stroke-miterlimit="10" xmlns:xlink="http://www.w3.org/1999/xlink" xmlns="http://www.w3.org/2000/svg"><clipPath id="p.0"><path d="m0 0l100.0 0l0 100.0l-100.0 0l0 -100.0z" clip-rule="nonzero"/></clipPath><g clip-path="url(#p.0)"><path fill="#000000" fill-opacity="0.0" d="m0 0l100.0 0l0 100.0l-100.0 0z" fill-rule="evenodd"/><path fill="#ffffff" d="m7.4015746 50.0l0 0c0 -23.52646 19.071964 -42.598427 42.598427 -42.598427l0 0c11.297806 0 22.132881 4.4880357 30.121635 12.476789c7.9887543 7.9887543 12.476791 18.82383 12.476791 30.121635l0 0c0 23.526459 -19.071968 42.598427 -42.598427 42.598427l0 0c-23.52646 0 -42.598427 -19.071968 -42.598427 -42.598427z" fill-rule="evenodd"/><path stroke="#000000" stroke-width="1.0" stroke-linejoin="round" stroke-linecap="butt" d="m7.4015746 50.0l0 0c0 -23.52646 19.071964 -42.598427 42.598427 -42.598427l0 0c11.297806 0 22.132881 4.4880357 30.121635 12.476789c7.9887543 7.9887543 12.476791 18.82383 12.476791 30.121635l0 0c0 23.526459 -19.071968 42.598427 -42.598427 42.598427l0 0c-23.52646 0 -42.598427 -19.071968 -42.598427 -42.598427z" fill-rule="evenodd"/></g></svg>