<svg version="1.1" viewBox="0.0 0.0 324.8582677165354 184.77165354330708" fill="none" stroke="none" stroke-linecap="square" stroke-miterlimit="10" xmlns:xlink="http://www.w3.org/1999/xlink" xmlns="http://www.w3.org/2000/svg"><clipPath id="p.0"><path d="m0 0l324.85828 0l0 184.77165l-324.85828 0l0 -184.77165z" clip-rule="nonzero"/></clipPath><g clip-path="url(#p.0)"><path fill="#000000" fill-opacity="0.0" d="m0 0l324.85828 0l0 184.77165l-324.85828 0z" fill-rule="evenodd"/><path fill="#ffffff" d="m37.167305 120.25069c-2.4622726 13.318497 5.6215973 26.503021 20.821342 33.95894c15.199745 7.455902 34.849686 7.8756104 50.611656 1.0809937l0 0c5.5830765 7.7444763 15.802078 13.091522 27.565819 14.423691c11.763733 1.3321838 23.690445 -1.5070038 32.172363 -7.6586914l0 0c4.756195 7.021515 14.095245 11.739075 24.703094 12.478638c10.607834 0.739563 20.983185 -2.6035614 27.444244 -8.843033l0 0c8.592972 7.4423523 22.264496 10.575867 35.098892 8.044647c12.834381 -2.5312195 22.526459 -10.272537 24.882477 -19.874268l0 0c10.527344 -2.1136932 19.296417 -7.486923 24.041565 -14.73143c4.7451477 -7.244507 5.000885 -15.649628 0.7011719 -23.04377l0 0c10.367157 -9.931114 12.792419 -23.164345 6.3707275 -34.761208c-6.4217224 -11.596855 -20.725586 -19.815022 -37.573578 -21.587563c-0.1187439 -10.884438 -8.228241 -20.87185 -21.202682 -26.11258c-12.974457 -5.2407284 -28.787796 -4.916401 -41.344757 0.84797287c-5.348694 -13.0359535 -20.403748 -22.627697 -38.66075 -24.631195c-18.256989 -2.0034976 -36.442963 3.940422 -46.700798 15.263737c-12.573891 -5.581215 -27.661575 -7.189007 -41.859528 -4.460684c-14.197952 2.728323 -26.31018 9.562935 -33.60437 18.962065l0 0c-12.84885 -1.1067963 -25.271948 3.7932968 -31.103792 12.268398c-5.831846 8.475101 -3.8309917 18.72108 5.009554 25.652927l0 0c-11.462128 4.9656525 -17.310818 14.819199 -14.496199 24.422394c2.814619 9.603188 13.654743 16.7799 26.867655 17.787743z" fill-rule="evenodd"/><path fill="#ffffff" d="m-160.49477 257.651l0 0c0 -2.5401154 -2.0591736 -4.599289 -4.599304 -4.599289c-2.5401154 0 -4.599289 2.0591736 -4.599289 4.599289c0 2.5401306 2.0591736 4.599304 4.599289 4.599304c2.5401306 0 4.599304 -2.0591736 4.599304 -4.599304z" fill-rule="evenodd"/><path fill="#ffffff" d="m-86.692444 222.76242c0 -5.080246 -4.118355 -9.198608 -9.198601 -9.198608c-5.080246 0 -9.198601 4.1183624 -9.198601 9.198608c0 5.080246 4.118355 9.198593 9.198601 9.198593c5.080246 0 9.198601 -4.118347 9.198601 -9.198593z" fill-rule="evenodd"/><path fill="#ffffff" d="m-4.676328 183.73285l0 0c0 -7.6203766 -6.177531 -13.797897 -13.797899 -13.797897c-7.620371 0 -13.797901 6.1775208 -13.797901 13.797897c0 7.6203613 6.1775303 13.797897 13.797901 13.797897c7.620369 0 13.797899 -6.177536 13.797899 -13.797897z" fill-rule="evenodd"/><path fill="#000000" fill-opacity="0.0" d="m42.77398 75.12466l0 0c-6.2492905 -0.36006927 -12.497904 0.7028961 -17.90687 3.0461884m33.70611 -36.38192c-2.5129662 -0.73627853 -5.1471024 -1.2264862 -7.834484 -1.4579735m75.341705 -14.560007l0 0c-1.890068 2.0863876 -3.4725266 4.3158684 -4.720413 6.6504574m92.0156 9.933239c-0.27792358 -2.4746475 -0.909729 -4.9206696 -1.8848419 -7.2972603m39.363052 52.38466l0 0c14.168167 -5.074959 23.109207 -15.684937 22.982803 -27.27277m31.228668 56.32011c-2.2945251 -3.9458237 -5.7973633 -7.4461136 -10.233887 -10.22644m-14.3237 48.172043l0 0c0.3909912 -1.5934448 0.57192993 -3.2108307 0.54034424 -4.8297577m-65.89882 10.46344l0 0c1.3334656 2.2281647 3.099472 4.3028107 5.2430115 6.1593323m-54.279083 -9.094147l0 0c0.54400635 1.8413696 1.3969574 3.6257477 2.539215 5.312027m-60.08866 -7.116791l0 0c3.3352127 -1.4377289 6.420746 -3.1681976 9.18882 -5.1533813m-78.98006 -35.348976l0 0c-0.72805786 1.7734451 -1.264286 3.5864868 -1.6036568 5.422165" fill-rule="evenodd"/><path stroke="#000000" stroke-width="1.0" stroke-linejoin="round" stroke-linecap="butt" d="m37.167305 120.25069c-2.4622726 13.318497 5.6215973 26.503021 20.821342 33.95894c15.199745 7.455902 34.849686 7.8756104 50.611656 1.0809937l0 0c5.5830765 7.7444763 15.802078 13.091522 27.565819 14.423691c11.763733 1.3321838 23.690445 -1.5070038 32.172363 -7.6586914l0 0c4.756195 7.021515 14.095245 11.739075 24.703094 12.478638c10.607834 0.739563 20.983185 -2.6035614 27.444244 -8.843033l0 0c8.592972 7.4423523 22.264496 10.575867 35.098892 8.044647c12.834381 -2.5312195 22.526459 -10.272537 24.882477 -19.874268l0 0c10.527344 -2.1136932 19.296417 -7.486923 24.041565 -14.73143c4.7451477 -7.244507 5.000885 -15.649628 0.7011719 -23.04377l0 0c10.367157 -9.931114 12.792419 -23.164345 6.3707275 -34.761208c-6.4217224 -11.596855 -20.725586 -19.815022 -37.573578 -21.587563c-0.1187439 -10.884438 -8.228241 -20.87185 -21.202682 -26.11258c-12.974457 -5.2407284 -28.787796 -4.916401 -41.344757 0.84797287c-5.348694 -13.0359535 -20.403748 -22.627697 -38.66075 -24.631195c-18.256989 -2.0034976 -36.442963 3.940422 -46.700798 15.263737c-12.573891 -5.581215 -27.661575 -7.189007 -41.859528 -4.460684c-14.197952 2.728323 -26.31018 9.562935 -33.60437 18.962065l0 0c-12.84885 -1.1067963 -25.271948 3.7932968 -31.103792 12.268398c-5.831846 8.475101 -3.8309917 18.72108 5.009554 25.652927l0 0c-11.462128 4.9656525 -17.310818 14.819199 -14.496199 24.422394c2.814619 9.603188 13.654743 16.7799 26.867655 17.787743z" fill-rule="evenodd"/><path stroke="#000000" stroke-width="1.0" stroke-linejoin="round" stroke-linecap="butt" d="m-160.49477 257.651l0 0c0 -2.5401154 -2.0591736 -4.599289 -4.599304 -4.599289c-2.5401154 0 -4.599289 2.0591736 -4.599289 4.599289c0 2.5401306 2.0591736 4.599304 4.599289 4.599304c2.5401306 0 4.599304 -2.0591736 4.599304 -4.599304z" fill-rule="evenodd"/><path stroke="#000000" stroke-width="1.0" stroke-linejoin="round" stroke-linecap="butt" d="m-86.692444 222.76242c0 -5.080246 -4.118355 -9.198608 -9.198601 -9.198608c-5.080246 0 -9.198601 4.1183624 -9.198601 9.198608c0 5.080246 4.118355 9.198593 9.198601 9.198593c5.080246 0 9.198601 -4.118347 9.198601 -9.198593z" fill-rule="evenodd"/><path stroke="#000000" stroke-width="1.0" stroke-linejoin="round" stroke-linecap="butt" d="m-4.676328 183.73285l0 0c0 -7.6203766 -6.177531 -13.797897 -13.797899 -13.797897c-7.620371 0 -13.797901 6.1775208 -13.797901 13.797897c0 7.6203613 6.1775303 13.797897 13.797901 13.797897c7.620369 0 13.797899 -6.177536 13.797899 -13.797897z" fill-rule="evenodd"/><path stroke="#000000" stroke-width="1.0" stroke-linejoin="round" stroke-linecap="butt" d="m42.77398 75.12466l0 0c-6.2492905 -0.36006927 -12.497904 0.7028961 -17.90687 3.0461884m33.70611 -36.38192c-2.5129662 -0.73627853 -5.1471024 -1.2264862 -7.834484 -1.4579735m75.341705 -14.560007l0 0c-1.890068 2.0863876 -3.4725266 4.3158684 -4.720413 6.6504574m92.0156 9.933239c-0.27792358 -2.4746475 -0.909729 -4.9206696 -1.8848419 -7.2972603m39.363052 52.38466l0 0c14.168167 -5.074959 23.109207 -15.684937 22.982803 -27.27277m31.228668 56.32011c-2.2945251 -3.9458237 -5.7973633 -7.4461136 -10.233887 -10.22644m-14.3237 48.172043l0 0c0.3909912 -1.5934448 0.57192993 -3.2108307 0.54034424 -4.8297577m-65.89882 10.46344l0 0c1.3334656 2.2281647 3.099472 4.3028107 5.2430115 6.1593323m-54.279083 -9.094147l0 0c0.54400635 1.8413696 1.3969574 3.6257477 2.539215 5.312027m-60.08866 -7.116791l0 0c3.3352127 -1.4377289 6.420746 -3.1681976 9.18882 -5.1533813m-78.98006 -35.348976l0 0c-0.72805786 1.7734451 -1.264286 3.5864868 -1.6036568 5.422165" fill-rule="evenodd"/></g></svg>