<svg version="1.1" viewBox="0.0 0.0 324.8582677165354 184.77165354330708" fill="none" stroke="none" stroke-linecap="square" stroke-miterlimit="10" xmlns:xlink="http://www.w3.org/1999/xlink" xmlns="http://www.w3.org/2000/svg"><clipPath id="p.0"><path d="m0 0l324.85828 0l0 184.77165l-324.85828 0l0 -184.77165z" clip-rule="nonzero"/></clipPath><g clip-path="url(#p.0)"><path fill="#000000" fill-opacity="0.0" d="m0 0l324.85828 0l0 184.77165l-324.85828 0z" fill-rule="evenodd"/><path fill="#ffffff" d="m288.08057 120.23672c2.4642944 13.318245 -5.626251 26.503593 -20.838501 33.961067c-15.2122345 7.457489 -34.87834 7.879196 -50.65329 1.0862122l0 0c-5.5876617 7.745056 -15.815079 13.093155 -27.588486 14.426529c-11.773422 1.3333893 -23.709946 -1.5045624 -32.198853 -7.6553955l0 0c-4.7601013 7.022003 -14.106827 11.74054 -24.723404 12.481186c-10.616577 0.74064636 -21.000458 -2.60141 -27.466827 -8.84021l0 0c-8.600052 7.4432373 -22.28283 10.5781555 -35.12777 8.048264c-12.844944 -2.5299072 -22.54501 -10.270218 -24.902962 -19.871704l0 0c-10.536015 -2.1126251 -19.312284 -7.484955 -24.061333 -14.728973c-4.749048 -7.2440186 -5.0050097 -15.649109 -0.7017517 -23.043694l0 0c-10.375689 -9.930054 -12.802951 -23.163033 -6.375963 -34.76055c6.4269867 -11.597519 20.742624 -19.81715 37.604485 -21.591427c0.118839264 -10.884449 8.235012 -20.872696 21.22013 -26.114758c12.985115 -5.2420654 28.811462 -4.919363 41.37877 0.8437195c5.353096 -13.036505 20.42054 -22.629797 38.69256 -24.635174c18.272018 -2.005375 36.472946 3.936674 46.739227 15.258933c12.5842285 -5.582508 27.684326 -7.1918507 41.893967 -4.4649887c14.2096405 2.7268639 26.331833 9.56023 33.632004 18.958607l0 0c12.859436 -1.1081161 25.292755 3.7907028 31.129395 12.265202c5.8366394 8.474503 3.834137 18.720684 -5.013672 25.653446l0 0c11.471558 4.96447 17.325073 14.817413 14.508118 24.420898c-2.816925 9.603485 -13.665955 16.781303 -26.88974 17.790512z" fill-rule="evenodd"/><path fill="#ffffff" d="m485.90903 257.6167c0 -2.5401154 2.059204 -4.5995026 4.599304 -4.599762c2.5401306 -2.593994E-4 4.599304 2.0587006 4.599304 4.598816c0 2.5401306 -2.0591736 4.599518 -4.599304 4.5997925c-2.5401 2.4414062E-4 -4.599304 -2.0587158 -4.599304 -4.5988464z" fill-rule="evenodd"/><path fill="#ffffff" d="m412.04797 222.7348c0 -5.080246 4.1183777 -9.19902 9.198608 -9.199554c5.080261 -5.187988E-4 9.198608 4.1174164 9.198608 9.197662c0 5.080246 -4.118347 9.19902 -9.198608 9.199539c-5.0802307 5.187988E-4 -9.198608 -4.117401 -9.198608 -9.197647z" fill-rule="evenodd"/><path fill="#ffffff" d="m329.97177 183.71547l0 0c0 -7.6203613 6.1775208 -13.798523 13.797882 -13.799316c7.620392 -7.7819824E-4 13.797913 6.176117 13.797913 13.796494c0 7.6203613 -6.1775208 13.798523 -13.797913 13.799316c-7.6203613 7.7819824E-4 -13.797882 -6.176117 -13.797882 -13.796494z" fill-rule="evenodd"/><path fill="#000000" fill-opacity="0.0" d="m282.46927 75.11126l0 0c6.254425 -0.36071014 12.508179 0.7016144 17.9216 3.0443497m-33.733826 -36.378452c2.5150146 -0.73653793 5.1513367 -1.2270164 7.840912 -1.4587822m-75.40369 -14.552258l0 0c1.8916168 2.086193 3.4753723 4.3155117 4.724289 6.649971m-92.09131 9.942703c0.2781601 -2.474678 0.91046906 -4.920765 1.8863983 -7.297451m-39.395447 52.388702l0 0c-14.179829 -5.073494 -23.128223 -15.682556 -23.001705 -27.270405m-31.254364 56.323322c2.2963963 -3.9460602 5.8021145 -7.4467087 10.242287 -10.227493m14.33551 48.170578l0 0c-0.39130783 -1.5934143 -0.57240677 -3.210785 -0.54078674 -4.829712m65.95303 10.456665l0 0c-1.3345642 2.228302 -3.102028 4.303131 -5.2473373 6.1598663m54.32376 -9.099716l0 0c-0.5444641 1.8414154 -1.3981171 3.625885 -2.5413055 5.3122864m60.138092 -7.1229706l0 0c-3.3379517 -1.4373932 -6.4260254 -3.1675415 -9.196381 -5.1524506m79.04503 -35.357086l0 0c0.7286682 1.7733688 1.2653503 3.586357 1.6049805 5.421997" fill-rule="evenodd"/><path stroke="#000000" stroke-width="1.0" stroke-linejoin="round" stroke-linecap="butt" d="m288.08057 120.23672c2.4642944 13.318245 -5.626251 26.503593 -20.838501 33.961067c-15.2122345 7.457489 -34.87834 7.879196 -50.65329 1.0862122l0 0c-5.5876617 7.745056 -15.815079 13.093155 -27.588486 14.426529c-11.773422 1.3333893 -23.709946 -1.5045624 -32.198853 -7.6553955l0 0c-4.7601013 7.022003 -14.106827 11.74054 -24.723404 12.481186c-10.616577 0.74064636 -21.000458 -2.60141 -27.466827 -8.84021l0 0c-8.600052 7.4432373 -22.28283 10.5781555 -35.12777 8.048264c-12.844944 -2.5299072 -22.54501 -10.270218 -24.902962 -19.871704l0 0c-10.536015 -2.1126251 -19.312284 -7.484955 -24.061333 -14.728973c-4.749048 -7.2440186 -5.0050097 -15.649109 -0.7017517 -23.043694l0 0c-10.375689 -9.930054 -12.802951 -23.163033 -6.375963 -34.76055c6.4269867 -11.597519 20.742624 -19.81715 37.604485 -21.591427c0.118839264 -10.884449 8.235012 -20.872696 21.22013 -26.114758c12.985115 -5.2420654 28.811462 -4.919363 41.37877 0.8437195c5.353096 -13.036505 20.42054 -22.629797 38.69256 -24.635174c18.272018 -2.005375 36.472946 3.936674 46.739227 15.258933c12.5842285 -5.582508 27.684326 -7.1918507 41.893967 -4.4649887c14.2096405 2.7268639 26.331833 9.56023 33.632004 18.958607l0 0c12.859436 -1.1081161 25.292755 3.7907028 31.129395 12.265202c5.8366394 8.474503 3.834137 18.720684 -5.013672 25.653446l0 0c11.471558 4.96447 17.325073 14.817413 14.508118 24.420898c-2.816925 9.603485 -13.665955 16.781303 -26.88974 17.790512z" fill-rule="evenodd"/><path stroke="#000000" stroke-width="1.0" stroke-linejoin="round" stroke-linecap="butt" d="m485.90903 257.6167c0 -2.5401154 2.059204 -4.5995026 4.599304 -4.599762c2.5401306 -2.593994E-4 4.599304 2.0587006 4.599304 4.598816c0 2.5401306 -2.0591736 4.599518 -4.599304 4.5997925c-2.5401 2.4414062E-4 -4.599304 -2.0587158 -4.599304 -4.5988464z" fill-rule="evenodd"/><path stroke="#000000" stroke-width="1.0" stroke-linejoin="round" stroke-linecap="butt" d="m412.04797 222.7348c0 -5.080246 4.1183777 -9.19902 9.198608 -9.199554c5.080261 -5.187988E-4 9.198608 4.1174164 9.198608 9.197662c0 5.080246 -4.118347 9.19902 -9.198608 9.199539c-5.0802307 5.187988E-4 -9.198608 -4.117401 -9.198608 -9.197647z" fill-rule="evenodd"/><path stroke="#000000" stroke-width="1.0" stroke-linejoin="round" stroke-linecap="butt" d="m329.97177 183.71547l0 0c0 -7.6203613 6.1775208 -13.798523 13.797882 -13.799316c7.620392 -7.7819824E-4 13.797913 6.176117 13.797913 13.796494c0 7.6203613 -6.1775208 13.798523 -13.797913 13.799316c-7.6203613 7.7819824E-4 -13.797882 -6.176117 -13.797882 -13.796494z" fill-rule="evenodd"/><path stroke="#000000" stroke-width="1.0" stroke-linejoin="round" stroke-linecap="butt" d="m282.46927 75.11126l0 0c6.254425 -0.36071014 12.508179 0.7016144 17.9216 3.0443497m-33.733826 -36.378452c2.5150146 -0.73653793 5.1513367 -1.2270164 7.840912 -1.4587822m-75.40369 -14.552258l0 0c1.8916168 2.086193 3.4753723 4.3155117 4.724289 6.649971m-92.09131 9.942703c0.2781601 -2.474678 0.91046906 -4.920765 1.8863983 -7.297451m-39.395447 52.388702l0 0c-14.179829 -5.073494 -23.128223 -15.682556 -23.001705 -27.270405m-31.254364 56.323322c2.2963963 -3.9460602 5.8021145 -7.4467087 10.242287 -10.227493m14.33551 48.170578l0 0c-0.39130783 -1.5934143 -0.57240677 -3.210785 -0.54078674 -4.829712m65.95303 10.456665l0 0c-1.3345642 2.228302 -3.102028 4.303131 -5.2473373 6.1598663m54.32376 -9.099716l0 0c-0.5444641 1.8414154 -1.3981171 3.625885 -2.5413055 5.3122864m60.138092 -7.1229706l0 0c-3.3379517 -1.4373932 -6.4260254 -3.1675415 -9.196381 -5.1524506m79.04503 -35.357086l0 0c0.7286682 1.7733688 1.2653503 3.586357 1.6049805 5.421997" fill-rule="evenodd"/></g></svg>