<svg version="1.1" viewBox="0.0 0.0 324.8582677165354 184.77165354330708" fill="none" stroke="none" stroke-linecap="square" stroke-miterlimit="10" xmlns:xlink="http://www.w3.org/1999/xlink" xmlns="http://www.w3.org/2000/svg"><clipPath id="p.0"><path d="m0 0l324.85828 0l0 184.77165l-324.85828 0l0 -184.77165z" clip-rule="nonzero"/></clipPath><g clip-path="url(#p.0)"><path fill="#000000" fill-opacity="0.0" d="m0 0l324.85828 0l0 184.77165l-324.85828 0z" fill-rule="evenodd"/><path fill="#ffffff" d="m36.87994 64.59518c-2.4622726 -13.283028 5.6215973 -26.432446 20.821342 -33.8685c15.199749 -7.436056 34.84968 -7.854637 50.61166 -1.0781231l0 0c5.583069 -7.7238483 15.802071 -13.056656 27.565811 -14.385282c11.763733 -1.3286247 23.690445 1.5029936 32.17238 7.6383066l0 0c4.756195 -7.0028143 14.09523 -11.707824 24.70308 -12.445414c10.607849 -0.7375889 20.983185 2.596632 27.444244 8.819485l0 0c8.592972 -7.422536 22.264511 -10.547697 35.098892 -8.023222c12.834366 2.5244741 22.526474 10.2451725 24.882492 19.821333l0 0c10.527344 2.1080742 19.296387 7.4669952 24.041534 14.692207c4.7451477 7.225212 5.0009155 15.607948 0.7011719 22.982399l0 0c10.367157 9.904671 12.79245 23.102661 6.3707275 34.668633c-6.421692 11.565979 -20.725555 19.762253 -37.573578 21.530075c-0.1187439 10.855446 -8.228241 20.816261 -21.202667 26.043037c-12.974442 5.226776 -28.78778 4.903305 -41.344757 -0.8457184c-5.348694 13.001236 -20.403748 22.567444 -38.66075 24.565598c-18.256989 1.998169 -36.442963 -3.9299164 -46.70079 -15.2230835c-12.573891 5.5663605 -27.661583 7.169861 -41.859535 4.448807c-14.197952 -2.721054 -26.310177 -9.537476 -33.604366 -18.91156l0 0c-12.84885 1.103836 -25.271948 -3.7832031 -31.103792 -12.235733c-5.831846 -8.45253 -3.8309908 -18.671227 5.009554 -25.58461l0 0c-11.462128 -4.952423 -17.310818 -14.779732 -14.496199 -24.357353c2.81462 -9.577614 13.654743 -16.735214 26.867655 -17.740372z" fill-rule="evenodd"/><path fill="#ffffff" d="m-160.79437 -72.43923l0 0c0 2.5333557 -2.0536957 4.5870514 -4.5870514 4.5870514c-2.5333557 0 -4.5870514 -2.0536957 -4.5870514 -4.5870514c0 -2.5333557 2.0536957 -4.5870514 4.5870514 -4.5870514c2.5333557 0 4.5870514 2.0536957 4.5870514 4.5870514z" fill-rule="evenodd"/><path fill="#ffffff" d="m-86.99849 -37.640625c0 5.0667152 -4.1073837 9.174101 -9.174103 9.174101c-5.066719 0 -9.174103 -4.1073856 -9.174103 -9.174101c0 -5.066719 4.1073837 -9.174107 9.174103 -9.174107c5.066719 0 9.174103 4.1073875 9.174103 9.174107z" fill-rule="evenodd"/><path fill="#ffffff" d="m-5.006257 1.2791493c0 7.6000767 -6.1610785 13.761155 -13.761155 13.761155c-7.6000767 0 -13.761156 -6.1610785 -13.761156 -13.761155c0 -7.6000757 6.1610794 -13.761154 13.761156 -13.761154c7.6000767 0 13.761155 6.1610785 13.761155 13.761154z" fill-rule="evenodd"/><path fill="#000000" fill-opacity="0.0" d="m42.486614 109.60103l0 0c-6.2492905 0.35910797 -12.497904 -0.7010269 -17.90687 -3.0380707m33.70611 36.28502c-2.5129662 0.7343292 -5.1471024 1.2232208 -7.834484 1.4541016m75.341705 14.521225l0 0c-1.890068 -2.0808258 -3.4725266 -4.304367 -4.720413 -6.632736m92.015594 -9.906799c-0.27792358 2.4680634 -0.90971375 4.9075775 -1.8848419 7.277832m39.363052 -52.245148l0 0c14.168182 5.0614395 23.109222 15.643158 22.982788 27.200134m31.228668 -56.17012c-2.2944946 3.9353104 -5.797333 7.426285 -10.233856 10.1992035m-14.32373 -48.043755l0 0c0.3909912 1.589201 0.57196045 3.2022877 0.54034424 4.8169003m-65.8988 -10.435579l0 0c1.3334656 -2.222231 3.099472 -4.2913494 5.2430267 -6.1429253m-54.2791 9.069923l0 0c0.54400635 -1.8364601 1.3969727 -3.616085 2.539215 -5.297884m-60.08866 7.097843l0 0c3.3352203 1.4339008 6.4207535 3.1597595 9.18882 5.1396675m-78.98006 35.254826l0 0c-0.72805786 -1.7687149 -1.264286 -3.5769348 -1.6036568 -5.4077225" fill-rule="evenodd"/><path stroke="#000000" stroke-width="1.0" stroke-linejoin="round" stroke-linecap="butt" d="m36.87994 64.59518c-2.4622726 -13.283028 5.6215973 -26.432446 20.821342 -33.8685c15.199749 -7.436056 34.84968 -7.854637 50.61166 -1.0781231l0 0c5.583069 -7.7238483 15.802071 -13.056656 27.565811 -14.385282c11.763733 -1.3286247 23.690445 1.5029936 32.17238 7.6383066l0 0c4.756195 -7.0028143 14.09523 -11.707824 24.70308 -12.445414c10.607849 -0.7375889 20.983185 2.596632 27.444244 8.819485l0 0c8.592972 -7.422536 22.264511 -10.547697 35.098892 -8.023222c12.834366 2.5244741 22.526474 10.2451725 24.882492 19.821333l0 0c10.527344 2.1080742 19.296387 7.4669952 24.041534 14.692207c4.7451477 7.225212 5.0009155 15.607948 0.7011719 22.982399l0 0c10.367157 9.904671 12.79245 23.102661 6.3707275 34.668633c-6.421692 11.565979 -20.725555 19.762253 -37.573578 21.530075c-0.1187439 10.855446 -8.228241 20.816261 -21.202667 26.043037c-12.974442 5.226776 -28.78778 4.903305 -41.344757 -0.8457184c-5.348694 13.001236 -20.403748 22.567444 -38.66075 24.565598c-18.256989 1.998169 -36.442963 -3.9299164 -46.70079 -15.2230835c-12.573891 5.5663605 -27.661583 7.169861 -41.859535 4.448807c-14.197952 -2.721054 -26.310177 -9.537476 -33.604366 -18.91156l0 0c-12.84885 1.103836 -25.271948 -3.7832031 -31.103792 -12.235733c-5.831846 -8.45253 -3.8309908 -18.671227 5.009554 -25.58461l0 0c-11.462128 -4.952423 -17.310818 -14.779732 -14.496199 -24.357353c2.81462 -9.577614 13.654743 -16.735214 26.867655 -17.740372z" fill-rule="evenodd"/><path stroke="#000000" stroke-width="1.0" stroke-linejoin="round" stroke-linecap="butt" d="m-160.79437 -72.43923l0 0c0 2.5333557 -2.0536957 4.5870514 -4.5870514 4.5870514c-2.5333557 0 -4.5870514 -2.0536957 -4.5870514 -4.5870514c0 -2.5333557 2.0536957 -4.5870514 4.5870514 -4.5870514c2.5333557 0 4.5870514 2.0536957 4.5870514 4.5870514z" fill-rule="evenodd"/><path stroke="#000000" stroke-width="1.0" stroke-linejoin="round" stroke-linecap="butt" d="m-86.99849 -37.640625c0 5.0667152 -4.1073837 9.174101 -9.174103 9.174101c-5.066719 0 -9.174103 -4.1073856 -9.174103 -9.174101c0 -5.066719 4.1073837 -9.174107 9.174103 -9.174107c5.066719 0 9.174103 4.1073875 9.174103 9.174107z" fill-rule="evenodd"/><path stroke="#000000" stroke-width="1.0" stroke-linejoin="round" stroke-linecap="butt" d="m-5.006257 1.2791493c0 7.6000767 -6.1610785 13.761155 -13.761155 13.761155c-7.6000767 0 -13.761156 -6.1610785 -13.761156 -13.761155c0 -7.6000757 6.1610794 -13.761154 13.761156 -13.761154c7.6000767 0 13.761155 6.1610785 13.761155 13.761154z" fill-rule="evenodd"/><path stroke="#000000" stroke-width="1.0" stroke-linejoin="round" stroke-linecap="butt" d="m42.486614 109.60103l0 0c-6.2492905 0.35910797 -12.497904 -0.7010269 -17.90687 -3.0380707m33.70611 36.28502c-2.5129662 0.7343292 -5.1471024 1.2232208 -7.834484 1.4541016m75.341705 14.521225l0 0c-1.890068 -2.0808258 -3.4725266 -4.304367 -4.720413 -6.632736m92.015594 -9.906799c-0.27792358 2.4680634 -0.90971375 4.9075775 -1.8848419 7.277832m39.363052 -52.245148l0 0c14.168182 5.0614395 23.109222 15.643158 22.982788 27.200134m31.228668 -56.17012c-2.2944946 3.9353104 -5.797333 7.426285 -10.233856 10.1992035m-14.32373 -48.043755l0 0c0.3909912 1.589201 0.57196045 3.2022877 0.54034424 4.8169003m-65.8988 -10.435579l0 0c1.3334656 -2.222231 3.099472 -4.2913494 5.2430267 -6.1429253m-54.2791 9.069923l0 0c0.54400635 -1.8364601 1.3969727 -3.616085 2.539215 -5.297884m-60.08866 7.097843l0 0c3.3352203 1.4339008 6.4207535 3.1597595 9.18882 5.1396675m-78.98006 35.254826l0 0c-0.72805786 -1.7687149 -1.264286 -3.5769348 -1.6036568 -5.4077225" fill-rule="evenodd"/></g></svg>